<svg xmlns="http://www.w3.org/2000/svg" width="655.058" height="604.785" viewBox="0 0 655.05847 604.7851"><defs><clipPath id="a"><path d="M0 576h576V0H0v576z"/></clipPath></defs><path d="M554.735 204.406v-.001z" fill="#00b7d3"/><g clip-path="url(#a)" transform="matrix(1.25 0 0 -1.25 -32.47 662.392)"><path d="M469.765 366.389c5.917-18.54 9.046-38.147 9.046-58.278 0-105.213-85.6-190.813-190.812-190.813-105.213 0-190.81 85.6-190.81 190.813 0 65.928 33.392 126.32 89.32 161.55l-37.951 60.253C71.8 481.568 25.977 398.652 25.977 308.11c0-144.481 117.544-262.025 262.022-262.025 40.185 0 78.272 9.118 112.34 25.355 94.084 94.979 104.225 210.22 69.426 294.948" fill="#00b7d3"/><path d="M550.023 308.11c0 90.542-45.824 173.458-122.58 221.804l-37.952-60.252c38.85-24.474 66.811-61.095 80.273-103.273 34.8-84.727 24.66-199.97-69.426-294.948 88.42 42.139 149.685 132.374 149.685 236.67" fill="#9edae8"/><path d="M180.723 279.212c15.199 0 25.19 11.682 25.19 26.037 0 14.918-10.131 26.317-23.22 26.317h-10.696v-52.354h8.726zm-34.621 76.138h36.028c31.525 0 51.79-20.547 51.79-50.101 0-29.415-19-49.821-51.368-49.821h-36.45v99.922zm96.261-50.101c0 28.428 18.858 51.649 52.213 51.649 13.651 0 29.414-5.771 40.673-19.421l-19.563-16.748c-4.222 4.786-11.822 10.415-21.11 10.415-12.385 0-24.066-9.007-24.066-25.895 0-13.652 9.007-25.474 24.066-25.474 7.881 0 16.325 4.222 21.11 10.133l19.563-16.888c-8.586-10.556-22.94-19-40.673-19-27.865 0-52.213 17.874-52.213 51.229m153.121-11.259l-9.007 28.85h-.28l-9.009-28.85h18.296zm6.896-22.378h-32.087l-5.067-16.185H337.22l36.311 99.923h25.613l36.17-99.923h-27.866l-5.067 16.185z" fill="#11455f"/></g></svg>