<svg xmlns="http://www.w3.org/2000/svg" width="655.058" height="604.785" viewBox="0 0 655.05847 604.7851"><defs><clipPath id="a"><path d="M0 576h576V0H0v576z"/></clipPath></defs><path d="M155.298 218.305h33.58V267.8h37.428v-49.495h33.755v124.174h-33.755v-45.297h-37.428v45.296h-33.58V218.305z" fill="#11455f"/><g clip-path="url(#a)" transform="matrix(1.25 0 0 -1.25 -32.47 662.392)"><path d="M242.157 305.46c0 28.263 18.75 51.35 51.91 51.35 13.57 0 29.241-5.738 40.435-19.309l-19.449-16.65c-4.198 4.757-11.753 10.353-20.987 10.353-12.313 0-23.926-8.954-23.926-25.744 0-13.57 8.955-25.324 23.926-25.324 7.835 0 16.23 4.198 20.987 10.074l19.45-16.79c-8.536-10.495-22.808-18.889-40.437-18.889-27.703 0-51.909 17.77-51.909 50.93m153.39-11.194l-8.954 28.682h-.28l-8.955-28.682h18.189zm6.856-22.247h-31.901l-5.037-16.089h-27.843l36.098 99.34h25.465l35.959-99.34H407.44l-5.038 16.09z" fill="#11455f"/><path d="M469.765 366.39zm0-.001c5.917-18.54 9.046-38.147 9.046-58.278 0-105.213-85.6-190.813-190.812-190.813-105.213 0-190.81 85.6-190.81 190.813 0 65.928 33.392 126.32 89.32 161.55l-37.951 60.253C71.8 481.568 25.977 398.652 25.977 308.11c0-144.481 117.544-262.025 262.022-262.025 40.185 0 78.272 9.118 112.34 25.355 94.084 94.979 104.225 210.22 69.426 294.948" fill="#f0492e"/><path d="M550.023 308.11c0 90.542-45.824 173.458-122.58 221.804l-37.952-60.252c38.85-24.474 66.811-61.095 80.273-103.273 34.8-84.727 24.66-199.97-69.426-294.948 88.42 42.139 149.685 132.374 149.685 236.67" fill="#f9b2a7"/></g></svg>