<?xml version="1.0" encoding="utf-8"?>
<!-- Generator: Adobe Illustrator 22.1.0, SVG Export Plug-In . SVG Version: 6.00 Build 0)  -->
<svg version="1.1" id="Layer_1" xmlns="http://www.w3.org/2000/svg" xmlns:xlink="http://www.w3.org/1999/xlink" x="0px" y="0px"
	 viewBox="0 0 234.7 234.7" style="enable-background:new 0 0 234.7 234.7;" xml:space="preserve">
<style type="text/css">
	.st0{fill:#2C3178;}
	.st1{fill:#01B3D1;}
	.st2{fill:#FFFFFF;}
	.st3{font-family:'AvertaStd-ExtraBold';}
	.st4{font-size:56px;}
	.st5{letter-spacing:3;}
</style>
<g>
	<g>
		<circle class="st0" cx="117.3" cy="116.3" r="115"/>
		<g>
			<path class="st1" d="M117.3,214.2c-54,0-97.9-43.9-97.9-97.9c0-54,43.9-97.9,97.9-97.9s97.9,43.9,97.9,97.9
				C215.2,170.3,171.3,214.2,117.3,214.2z M117.3,25.7c-50,0-90.7,40.7-90.7,90.7c0,50,40.7,90.7,90.7,90.7s90.7-40.7,90.7-90.7
				C208,66.3,167.3,25.7,117.3,25.7z"/>
		</g>
	</g>
	<g>
		<text transform="matrix(1 0 0 1 60.0716 136.3635)"><tspan x="0" y="0" class="st2 st3 st4 st5">LC</tspan><tspan x="78.2" y="0" class="st2 st3 st4 st5">A</tspan></text>
	</g>
</g>
</svg>
