<svg xmlns="http://www.w3.org/2000/svg" width="654.898" height="604.638" viewBox="0 0 654.89777 604.63751"><defs><clipPath id="a"><path d="M0 576h576V0H0v576z"/></clipPath></defs><g clip-path="url(#a)" transform="matrix(1.25 0 0 -1.25 -32.09 662.28)"><path d="M469.352 366.338c5.915-18.535 9.044-38.139 9.044-58.264 0-105.188-85.578-190.766-190.766-190.766-105.188 0-190.763 85.578-190.763 190.766 0 65.912 33.383 126.29 89.298 161.512l-37.942 60.237c-76.74-48.335-122.551-131.23-122.551-221.749 0-144.445 117.515-261.96 261.958-261.96 40.174 0 78.253 9.115 112.313 25.347 94.06 94.957 104.199 210.17 69.409 294.877" fill="#7fc99b"/><path d="M549.59 308.074c0 90.52-45.813 173.415-122.551 221.75l-37.942-60.238c38.842-24.468 66.795-61.08 80.254-103.247 34.79-84.707 24.653-199.92-69.408-294.878 88.397 42.13 149.647 132.342 149.647 236.613" fill="#b3ddc0"/><path d="M121.486 275.096l14.11 17.238c7.307-7.444 15.41-10.315 21.152-10.315 5.753 0 7.965 3.138 7.965 6.008 0 3.658-1.83 5.615-11.75 8.88-14.101 4.838-28.212 11.623-28.212 30.562 0 15.8 13.196 27.685 30.955 28.078 12.793.26 24.16-4.7 32.784-12.404l-13.717-17.631c-8.093 6.269-13.06 8.358-17.632 8.358-4.445 0-6.53-2.223-6.53-5.487 0-3.137 1.958-5.615 11.358-9.273 16.46-6.264 28.87-10.315 28.87-28.212 0-23.245-19.46-30.69-35.005-30.69-12.017 0-24.416 4.7-34.348 14.888M243.89 297.3l-8.359 26.776h-.267l-8.357-26.776h16.982zm6.4-20.77h-29.775l-4.71-15.013h-25.99l33.7 92.722h23.766l33.561-92.722h-25.85l-4.702 15.014zm25.658 31.223c0 26.377 17.503 47.927 48.458 47.927 12.665 0 27.298-5.36 37.74-18.025l-18.152-15.536c-3.913 4.435-10.974 9.66-19.588 9.66-11.495 0-22.33-8.362-22.33-24.026 0-12.676 8.357-23.64 22.33-23.64 7.316 0 15.144 3.914 19.588 9.4l18.152-15.673c-7.965-9.794-21.289-17.631-37.74-17.631-25.86 0-48.458 16.589-48.458 47.544M418.092 297.3l-8.358 26.776h-.267L401.11 297.3h16.982zm6.4-20.77h-29.774l-4.711-15.013h-25.99l33.7 92.722h23.767l33.56-92.722h-25.85l-4.701 15.014z" fill="#004768"/></g></svg>