<svg id="Layer_1" data-name="Layer 1" xmlns="http://www.w3.org/2000/svg" viewBox="0 0 200 200"><defs><style>.cls-1{font-size:24.72px;}.cls-1,.cls-2,.cls-5{fill:#fff;}.cls-1,.cls-2{font-family:AvertaStd-ExtraBold, Averta Std;font-weight:700;}.cls-2{font-size:16.12px;}.cls-3{fill:#d32027;}.cls-4{fill:none;stroke:#d32027;stroke-miterlimit:10;stroke-width:7px;}</style></defs><title>TTCA_Logo</title><circle cx="100" cy="100" r="98.54"/><text class="cls-1" transform="translate(37.67 82.72) rotate(-67.84)">T</text><text class="cls-1" transform="matrix(0.6, -0.8, 0.8, 0.6, 44.07, 67.69)">E</text><text class="cls-1" transform="translate(53.84 54.65) rotate(-37.76)">X</text><text class="cls-1" transform="translate(69.19 43.13) rotate(-20.82)">A</text><text class="cls-1" transform="translate(87.08 36.83) rotate(-5.44)">S</text><text class="cls-1" transform="translate(103.21 35.88) rotate(5.34)"> </text><text class="cls-1" transform="matrix(0.96, 0.28, -0.28, 0.96, 111.43, 36.45)">T</text><text class="cls-1" transform="translate(127.05 41.29) rotate(30.86)">E</text><text class="cls-1" transform="translate(140.64 49.4) rotate(46.1)">C</text><text class="cls-1" transform="translate(153.84 63.49) rotate(63.24)">H</text><text class="cls-2" transform="matrix(0.33, 0.95, -0.95, 0.33, 28.12, 122.33)">C</text><text class="cls-2" transform="matrix(0.52, 0.85, -0.85, 0.52, 33.55, 136.95)">O</text><text class="cls-2" transform="matrix(0.7, 0.72, -0.72, 0.7, 42.95, 151.24)">D</text><text class="cls-2" transform="matrix(0.8, 0.6, -0.6, 0.8, 53.8, 161.64)">I</text><text class="cls-2" transform="translate(60.61 166.71) rotate(27.48)">N</text><text class="cls-2" transform="translate(74.93 173.66) rotate(15.3)">G</text><text class="cls-2" transform="matrix(0.99, 0.11, -0.11, 0.99, 89.84, 177.15)"> </text><text class="cls-2" transform="translate(97.19 178) rotate(-2)">A</text><text class="cls-2" transform="matrix(0.97, -0.23, 0.23, 0.97, 111.62, 177.18)">C</text><text class="cls-2" transform="translate(126.58 173.2) rotate(-25.11)">A</text><text class="cls-2" transform="matrix(0.8, -0.6, 0.6, 0.8, 140.12, 166.42)">D</text><text class="cls-2" transform="matrix(0.67, -0.74, 0.74, 0.67, 152.14, 156.81)">E</text><text class="cls-2" transform="translate(161.06 146.62) rotate(-60.12)">M</text><text class="cls-2" transform="translate(169.41 130.79) rotate(-72.52)">Y</text><path class="cls-3" d="M100,200A100,100,0,1,1,200,100,100.11,100.11,0,0,1,100,200ZM100,7.37A92.63,92.63,0,1,0,192.64,100,92.74,92.74,0,0,0,100,7.37Z"/><polygon class="cls-3" points="28.31 92.26 29.79 96.81 34.58 96.81 30.71 99.62 32.19 104.18 28.31 101.36 24.44 104.18 25.92 99.62 22.05 96.81 26.83 96.81 28.31 92.26"/><polygon class="cls-3" points="170.73 92.26 172.21 96.81 176.99 96.81 173.12 99.62 174.6 104.18 170.73 101.36 166.85 104.18 168.33 99.62 164.46 96.81 169.25 96.81 170.73 92.26"/><circle class="cls-4" cx="99.9" cy="99.86" r="46.22"/><path class="cls-3" d="M83,114.86v-6.08l32.27-13.85v8.12L93.8,111.77l15.25,6.08v8Z"/><path class="cls-5" d="M115.14,83v6.08L82.81,102.81V94.69l21.5-8.63L89.06,80V72Z"/></svg>